<svg xmlns="http://www.w3.org/2000/svg" viewBox="0 0 210.9 242.96"><defs><style>.cls-1{fill:#fff;}.cls-2{fill:#ff3822;}</style></defs><title>Resurs 1</title><g id="Lager_2" data-name="Lager 2"><g id="Lager_1-2" data-name="Lager 1"><path class="cls-1" d="M105.45,0C48.55,0,0,47.21,0,105.45,0,192.83,105.45,243,105.45,243S210.9,192.83,210.9,105.45C210.9,47.21,162.35,0,105.45,0Z"/><path class="cls-2" d="M105.45,0C48.55,0,0,47.21,0,105.45c0,37.68,19.61,68.43,41.92,91.22V48h52.4l71.33,130H118.71L82.92,113.26V229.93a215.86,215.86,0,0,0,22.53,13S210.9,192.83,210.9,105.45C210.9,47.21,162.35,0,105.45,0Zm60.47,162.5-41-76.33V48h41Z"/></g></g></svg>